<svg width="46" height="50" viewBox="0 0 46 50" fill="none" xmlns="http://www.w3.org/2000/svg">
<path d="M23.981 48.3263C24.5727 48.3263 25.1401 48.0912 25.5585 47.6729C25.9768 47.2545 26.2119 46.6871 26.2119 46.0954C26.2119 45.5038 25.9768 44.9364 25.5585 44.518C25.1401 44.0997 24.5727 43.8646 23.981 43.8646C23.3894 43.8646 22.822 44.0997 22.4036 44.518C21.9853 44.9364 21.7502 45.5038 21.7502 46.0954C21.7502 46.6871 21.9853 47.2545 22.4036 47.6729C22.822 48.0912 23.3894 48.3263 23.981 48.3263V48.3263ZM3.90367 14.864C4.49532 14.864 5.06274 14.6289 5.4811 14.2106C5.89946 13.7922 6.13449 13.2248 6.13449 12.6332C6.13449 12.0415 5.89946 11.4741 5.4811 11.0557C5.06274 10.6374 4.49532 10.4023 3.90367 10.4023C3.31202 10.4023 2.7446 10.6374 2.32624 11.0557C1.90788 11.4741 1.67285 12.0415 1.67285 12.6332C1.67285 13.2248 1.90788 13.7922 2.32624 14.2106C2.7446 14.6289 3.31202 14.864 3.90367 14.864V14.864ZM3.90367 37.1722C4.49532 37.1722 5.06274 36.9371 5.4811 36.5188C5.89946 36.1004 6.13449 35.533 6.13449 34.9414C6.13449 34.3497 5.89946 33.7823 5.4811 33.3639C5.06274 32.9456 4.49532 32.7105 3.90367 32.7105C3.31202 32.7105 2.7446 32.9456 2.32624 33.3639C1.90788 33.7823 1.67285 34.3497 1.67285 34.9414C1.67285 35.533 1.90788 36.1004 2.32624 36.5188C2.7446 36.9371 3.31202 37.1722 3.90367 37.1722V37.1722Z" fill="black"/>
<path fill-rule="evenodd" clip-rule="evenodd" d="M1.14344 9.87293C1.87556 9.1408 2.86854 8.72949 3.90393 8.72949C4.93932 8.72949 5.9323 9.1408 6.66443 9.87293C7.39656 10.6051 7.80787 11.598 7.80787 12.6334C7.80787 13.6688 7.39656 14.6618 6.66443 15.3939C5.9323 16.1261 4.93932 16.5374 3.90393 16.5374C2.86854 16.5374 1.87556 16.1261 1.14344 15.3939C0.411306 14.6618 0 13.6688 0 12.6334C0 11.598 0.411306 10.6051 1.14344 9.87293ZM3.90393 13.1911C4.05185 13.1911 4.1937 13.1324 4.29829 13.0278C4.40288 12.9232 4.46164 12.7813 4.46164 12.6334C4.46164 12.4855 4.40288 12.3437 4.29829 12.2391C4.1937 12.1345 4.05185 12.0757 3.90393 12.0757C3.75602 12.0757 3.61417 12.1345 3.50958 12.2391C3.40499 12.3437 3.34623 12.4855 3.34623 12.6334C3.34623 12.7813 3.40499 12.9232 3.50958 13.0278C3.61417 13.1324 3.75602 13.1911 3.90393 13.1911ZM1.14344 32.1811C1.87557 31.449 2.86855 31.0377 3.90393 31.0377C4.93932 31.0377 5.9323 31.449 6.66443 32.1811C7.39656 32.9132 7.80787 33.9062 7.80787 34.9416C7.80787 35.977 7.39656 36.97 6.66443 37.7021C5.9323 38.4342 4.93932 38.8455 3.90393 38.8455C2.86855 38.8455 1.87557 38.4342 1.14344 37.7021C0.411305 36.97 0 35.977 0 34.9416C0 33.9062 0.411305 32.9132 1.14344 32.1811ZM3.90393 35.4993C4.05185 35.4993 4.1937 35.4406 4.29829 35.336C4.40288 35.2314 4.46164 35.0895 4.46164 34.9416C4.46164 34.7937 4.40288 34.6518 4.29829 34.5473C4.1937 34.4427 4.05185 34.3839 3.90393 34.3839C3.75602 34.3839 3.61416 34.4427 3.50958 34.5473C3.40499 34.6518 3.34623 34.7937 3.34623 34.9416C3.34623 35.0895 3.40499 35.2314 3.50958 35.336C3.61416 35.4406 3.75602 35.4993 3.90393 35.4993ZM21.2208 43.3352C21.9529 42.6031 22.9459 42.1918 23.9813 42.1918C25.0167 42.1918 26.0097 42.6031 26.7418 43.3352C27.4739 44.0673 27.8852 45.0603 27.8852 46.0957C27.8852 47.1311 27.4739 48.1241 26.7418 48.8562C26.0097 49.5883 25.0167 49.9996 23.9813 49.9996C22.9459 49.9996 21.9529 49.5883 21.2208 48.8562C20.4887 48.1241 20.0774 47.1311 20.0774 46.0957C20.0774 45.0603 20.4887 44.0673 21.2208 43.3352ZM23.9813 46.6534C24.1292 46.6534 24.2711 46.5947 24.3757 46.4901C24.4803 46.3855 24.539 46.2436 24.539 46.0957C24.539 45.9478 24.4803 45.8059 24.3757 45.7014C24.2711 45.5968 24.1292 45.538 23.9813 45.538C23.8334 45.538 23.6915 45.5968 23.5869 45.7014C23.4824 45.8059 23.4236 45.9478 23.4236 46.0957C23.4236 46.2436 23.4824 46.3855 23.5869 46.4901C23.6915 46.5947 23.8334 46.6534 23.9813 46.6534Z" fill="black"/>
<path fill-rule="evenodd" clip-rule="evenodd" d="M23.981 3.39441L5.5767 13.6197V33.9582L23.981 44.1814L42.3852 33.9582V13.6197L23.981 3.39441ZM45.7314 13.4213V34.1537C45.7314 34.1539 45.7314 34.1534 45.7314 34.1537C45.7316 34.6911 45.5879 35.2196 45.3153 35.6827C45.0425 36.1461 44.6507 36.5281 44.1805 36.7888L25.4426 47.1973C24.9957 47.4451 24.492 47.5758 23.981 47.5758C23.4699 47.5758 22.9672 47.4457 22.5203 47.1978L3.78145 36.7888C3.31122 36.5281 2.91939 36.1461 2.64665 35.6827C2.37403 35.2195 2.23034 34.6918 2.23047 34.1544V13.4213C2.2311 12.8844 2.37523 12.3555 2.64792 11.8931C2.9204 11.431 3.31134 11.0501 3.78033 10.7898L22.5192 0.378535C22.9661 0.130672 23.4699 0 23.981 0C24.492 0 24.9947 0.130051 25.4416 0.377914L44.1805 10.7891C44.1808 10.7894 44.1801 10.7889 44.1805 10.7891C44.6494 11.0495 45.0415 11.431 45.314 11.8931C45.5867 12.3555 45.7308 12.8844 45.7314 13.4213ZM42.5575 13.7155C42.5579 13.7157 42.5572 13.7153 42.5575 13.7155Z" fill="black"/>
<path fill-rule="evenodd" clip-rule="evenodd" d="M44.4067 12.442C44.8554 13.2498 44.5643 14.2684 43.7565 14.7171L25.6552 24.7721V43.8658C25.6552 44.7898 24.9061 45.5389 23.9821 45.5389C23.0581 45.5389 22.309 44.7898 22.309 43.8658V24.7734L4.27012 14.7528C3.46235 14.304 3.17128 13.2855 3.62 12.4777C4.06872 11.6699 5.0873 11.3789 5.89507 11.8276L23.981 21.8743L42.1316 11.7919C42.9394 11.3432 43.958 11.6342 44.4067 12.442Z" fill="black"/>
</svg>
