<svg width="56" height="50" viewBox="0 0 56 50" fill="none" xmlns="http://www.w3.org/2000/svg">
<path d="M52.7778 0C53.5145 0 54.221 0.292658 54.742 0.813592C55.2629 1.33453 55.5556 2.04107 55.5556 2.77778V47.2222C55.5556 47.9589 55.2629 48.6655 54.742 49.1864C54.221 49.7073 53.5145 50 52.7778 50H2.77778C2.04107 50 1.33453 49.7073 0.813592 49.1864C0.292658 48.6655 0 47.9589 0 47.2222V2.77778C0 2.04107 0.292658 1.33453 0.813592 0.813592C1.33453 0.292658 2.04107 0 2.77778 0H52.7778ZM20.5528 13.8889H14.9972L6.10833 36.1111H12.0917L13.2028 33.3333H22.3417L23.4528 36.1111H29.4389L20.5528 13.8889ZM47.2222 13.8889H41.6667V19.4444H38.8889C36.7197 19.4424 34.6352 20.2862 33.0783 21.7966C31.5214 23.307 30.6148 25.365 30.5511 27.5332C30.4875 29.7015 31.2718 31.8091 32.7374 33.4083C34.203 35.0074 36.2344 35.9721 38.4 36.0972L38.8889 36.1111H47.2222V13.8889ZM41.6667 25V30.5556H38.8889L38.5639 30.5361C37.8888 30.4558 37.2665 30.1307 36.815 29.6223C36.3636 29.114 36.1142 28.4577 36.1142 27.7778C36.1142 27.0979 36.3636 26.4416 36.815 25.9332C37.2665 25.4249 37.8888 25.0997 38.5639 25.0194L38.8889 25H41.6667ZM17.775 21.9028L20.1222 27.7778H15.4222L17.775 21.9028Z" fill="black"/>
</svg>
