<svg width="95" height="95" viewBox="0 0 95 95" fill="none" xmlns="http://www.w3.org/2000/svg">
<path d="M79.0308 43.436H16.32C14.2764 43.436 12.6197 45.0927 12.6197 47.1364V47.5259C12.6197 49.5695 14.2764 51.2262 16.32 51.2262H79.0308C81.0745 51.2262 82.7312 49.5695 82.7312 47.5259V47.1364C82.7312 45.0927 81.0745 43.436 79.0308 43.436Z" fill="#69fe8b"/>
<path d="M79.0308 62.9115H16.32C14.2764 62.9115 12.6197 64.5682 12.6197 66.6118V67.0013C12.6197 69.0449 14.2764 70.7016 16.32 70.7016H79.0308C81.0745 70.7016 82.7312 69.0449 82.7312 67.0013V66.6118C82.7312 64.5682 81.0745 62.9115 79.0308 62.9115Z" fill="#69fe8b"/>
<path d="M79.0308 23.9606H16.32C14.2764 23.9606 12.6197 25.6173 12.6197 27.661V28.0505C12.6197 30.0941 14.2764 31.7508 16.32 31.7508H79.0308C81.0745 31.7508 82.7312 30.0941 82.7312 28.0505V27.661C82.7312 25.6173 81.0745 23.9606 79.0308 23.9606Z" fill="#69fe8b"/>
</svg>
