<svg width="32" height="50" viewBox="0 0 32 50" fill="none" xmlns="http://www.w3.org/2000/svg">
<path d="M3.12504 1.56252C3.12504 1.14811 2.96041 0.75068 2.66738 0.457651C2.37436 0.164622 1.97692 0 1.56252 0C1.14811 0 0.75068 0.164622 0.457651 0.457651C0.164622 0.75068 0 1.14811 0 1.56252V7.81259C0 9.0558 0.493865 10.2481 1.37295 11.1272C2.25204 12.0063 3.44434 12.5001 4.68755 12.5001H5.34381L0.781259 22.1252C0.236367 23.2757 -0.0191447 24.5419 0.0369538 25.8137C0.0930523 27.0854 0.459062 28.3242 1.10314 29.4222L11.9251 47.8818C12.3038 48.5267 12.8444 49.0614 13.4934 49.433C14.1425 49.8045 14.8773 50 15.6252 50C16.373 50 17.1079 49.8045 17.7569 49.433C18.4059 49.0614 18.9466 48.5267 19.3252 47.8818L30.1472 29.4222C30.7908 28.3239 31.1563 27.085 31.2118 25.8133C31.2674 24.5415 31.0113 23.2755 30.466 22.1252L25.9065 12.5001H26.5628C27.806 12.5001 28.9983 12.0063 29.8774 11.1272C30.7565 10.2481 31.2504 9.0558 31.2504 7.81259V1.56252C31.2504 1.14811 31.0857 0.75068 30.7927 0.457651C30.4997 0.164622 30.1022 0 29.6878 0C29.2734 0 28.876 0.164622 28.583 0.457651C28.2899 0.75068 28.1253 1.14811 28.1253 1.56252V7.81259C28.1253 8.22699 27.9607 8.62442 27.6677 8.91745C27.3746 9.21048 26.9772 9.3751 26.5628 9.3751H4.68755C4.27315 9.3751 3.87572 9.21048 3.58269 8.91745C3.28966 8.62442 3.12504 8.22699 3.12504 7.81259V1.56252ZM22.4503 12.5001L27.6441 23.4659C27.9704 24.1558 28.1233 24.915 28.0895 25.6774C28.0557 26.4399 27.8363 27.1826 27.4503 27.8409L17.1877 45.3474V27.7066C17.7835 27.3626 18.2491 26.8317 18.5123 26.1961C18.7756 25.5605 18.8218 24.8559 18.6437 24.1914C18.4657 23.5269 18.0733 22.9397 17.5276 22.5209C16.9818 22.1022 16.3131 21.8752 15.6252 21.8752C14.9372 21.8752 14.2685 22.1022 13.7228 22.5209C13.177 22.9397 12.7847 23.5269 12.6066 24.1914C12.4286 24.8559 12.4748 25.5605 12.738 26.1961C13.0013 26.8317 13.4669 27.3626 14.0627 27.7066V45.3474L3.80004 27.8441C3.41403 27.1857 3.19461 26.443 3.16084 25.6806C3.12708 24.9181 3.27999 24.1589 3.60629 23.469L8.8001 12.5001H22.4503Z" fill="#EEEEEE"/>
<circle cx="15.6253" cy="25.0005" r="3.12504" fill="#69FE8B"/>
<rect x="14.0627" y="25.0005" width="3.12504" height="21.8752" rx="0.5" fill="#69FE8B"/>
</svg>
