<svg width="55" height="50" viewBox="0 0 55 50" fill="none" xmlns="http://www.w3.org/2000/svg">
<path d="M14.5803 37.9706L17.9708 33.7339L7.05617 25.0027L17.9708 16.2716L14.5803 12.0348L1.01841 22.8843C0.700647 23.1384 0.444117 23.4608 0.267826 23.8275C0.0915354 24.1942 0 24.5958 0 25.0027C0 25.4096 0.0915354 25.8112 0.267826 26.1779C0.444117 26.5446 0.700647 26.867 1.01841 27.1211L14.5803 37.9706ZM39.6698 12.0348L36.2793 16.2716L47.194 25.0027L36.2793 33.7339L39.6698 37.9706L53.2317 27.1211C53.5495 26.867 53.806 26.5446 53.9823 26.1779C54.1586 25.8112 54.2501 25.4096 54.2501 25.0027C54.2501 24.5958 54.1586 24.1942 53.9823 23.8275C53.806 23.4608 53.5495 23.1384 53.2317 22.8843L39.6698 12.0348ZM35.1971 1.17717L24.3476 50L19.0503 48.8228L29.8998 0L35.1971 1.17717Z" fill="#EEEEEE"/>
<path d="M35.1971 1.17717L24.3476 50L19.0503 48.8228L29.8998 0L35.1971 1.17717Z" fill="#69FE8B"/>
</svg>
