<svg width="48" height="50" viewBox="0 0 48 50" fill="none" xmlns="http://www.w3.org/2000/svg">
<path d="M40 2.5C35.865 2.5 32.5 5.865 32.5 10C32.5 11.255 32.84 12.42 33.385 13.4625L30.595 16.7175C28.9446 15.5965 26.9951 14.998 25 15C23.1525 15 21.4375 15.54 19.95 16.415L16.415 12.88C17.1172 11.6161 17.4903 10.1959 17.5 8.75C17.5 3.925 13.575 0 8.75 0C3.925 0 0 3.925 0 8.75C0 13.575 3.925 17.5 8.75 17.5C10.2525 17.5 11.645 17.085 12.88 16.415L16.415 19.95C15.4993 21.4761 15.0106 23.2203 15 25C15 27.4925 15.95 29.7475 17.4625 31.5025L13.2325 35.7325L13.295 35.795C12.2729 35.2788 11.145 35.0067 10 35C5.865 35 2.5 38.365 2.5 42.5C2.5 46.635 5.865 50 10 50C14.135 50 17.5 46.635 17.5 42.5C17.5 41.31 17.1975 40.2025 16.705 39.205L16.7675 39.2675L21.6525 34.3825C22.705 34.7575 23.82 35 25 35C30.515 35 35 30.515 35 25C34.9893 23.447 34.6133 21.9183 33.9025 20.5375L37.035 16.8825C37.945 17.2775 38.945 17.5 40 17.5C44.135 17.5 47.5 14.135 47.5 10C47.5 5.865 44.135 2.5 40 2.5ZM10 45C9.33696 45 8.70107 44.7366 8.23223 44.2678C7.76339 43.7989 7.5 43.163 7.5 42.5C7.5 41.837 7.76339 41.2011 8.23223 40.7322C8.70107 40.2634 9.33696 40 10 40C10.663 40 11.2989 40.2634 11.7678 40.7322C12.2366 41.2011 12.5 41.837 12.5 42.5C12.5 43.163 12.2366 43.7989 11.7678 44.2678C11.2989 44.7366 10.663 45 10 45ZM5 8.75C5 6.6825 6.6825 5 8.75 5C10.8175 5 12.5 6.6825 12.5 8.75C12.5 10.8175 10.8175 12.5 8.75 12.5C6.6825 12.5 5 10.8175 5 8.75ZM25 30C22.2425 30 20 27.7575 20 25C20 22.2425 22.2425 20 25 20C27.7575 20 30 22.2425 30 25C30 27.7575 27.7575 30 25 30ZM40 12.5C39.337 12.5 38.7011 12.2366 38.2322 11.7678C37.7634 11.2989 37.5 10.663 37.5 10C37.5 9.33696 37.7634 8.70107 38.2322 8.23223C38.7011 7.76339 39.337 7.5 40 7.5C40.663 7.5 41.2989 7.76339 41.7678 8.23223C42.2366 8.70107 42.5 9.33696 42.5 10C42.5 10.663 42.2366 11.2989 41.7678 11.7678C41.2989 12.2366 40.663 12.5 40 12.5Z" fill="#000"/>
</svg>
