<svg width="49" height="50" viewBox="0 0 49 50" fill="none" xmlns="http://www.w3.org/2000/svg">
<path d="M47.2699 32.356C47.2699 32.356 47.2697 32.3569 47.2692 32.3588C47.2696 32.357 47.2699 32.356 47.2699 32.356ZM47.1492 32.5949L42.3252 40.8816L37.3268 38.8863C36.2134 38.4419 34.9808 38.6091 34.0252 39.2499C33.2324 39.7815 32.5247 40.2057 31.8957 40.5303C30.8885 41.0499 30.0621 42.0331 29.8889 43.2936L29.1735 48.5H19.5917L18.8733 43.2717C18.7032 42.0331 17.898 41.0463 16.8744 40.5324C16.1613 40.1744 15.4623 39.7591 14.7615 39.2834C13.8055 38.6343 12.5545 38.4408 11.412 38.8969L6.43999 40.8817L1.61599 32.5949L5.67447 29.4597C6.74417 28.6333 7.1702 27.3432 7.14141 26.2055C7.13269 25.8612 7.1326 25.4678 7.1326 25C7.1326 24.534 7.13269 24.1418 7.14131 23.7983C7.16994 22.6571 6.7404 21.3635 5.66533 20.538L1.60635 17.4217L6.43998 9.11835L11.4384 11.1137C12.5518 11.5581 13.7844 11.3909 14.74 10.7501C15.5328 10.2185 16.2404 9.79425 16.8695 9.46972C17.8767 8.95007 18.7031 7.96693 18.8763 6.70643L19.5917 1.5H29.1735L29.8919 6.72832L31.3779 6.52413L29.8919 6.72832C30.062 7.96685 30.8672 8.95372 31.8908 9.46761C32.6039 9.82564 33.3029 10.2409 34.0036 10.7166C34.9597 11.3657 36.2107 11.5592 37.3532 11.1032L42.3252 9.11835L47.1588 17.4217L43.0999 20.538C42.0248 21.3635 41.5953 22.6571 41.6239 23.7983C41.6325 24.1418 41.6326 24.534 41.6326 25C41.6326 25.4678 41.6325 25.8612 41.6238 26.2055C41.595 27.3432 42.021 28.6333 43.0907 29.4597L47.1492 32.5949ZM47.2697 17.6435C47.2697 17.6435 47.2694 17.6426 47.2691 17.6408C47.2696 17.6426 47.2697 17.6435 47.2697 17.6435ZM42.5335 9.04911C42.5335 9.04914 42.5326 9.04923 42.531 9.04932L42.5335 9.04911ZM19.638 1.34415C19.6385 1.3434 19.6387 1.34305 19.6387 1.34306L19.638 1.34415ZM6.23173 9.04911C6.23171 9.04909 6.23253 9.04913 6.23421 9.04932L6.23173 9.04911ZM1.4955 17.6435C1.49547 17.6435 1.49565 17.6426 1.49614 17.6408C1.49578 17.6426 1.49553 17.6435 1.4955 17.6435ZM1.49529 32.356C1.49532 32.356 1.49557 32.357 1.49596 32.3589C1.49544 32.3569 1.49525 32.356 1.49529 32.356ZM6.23173 40.9509C6.23174 40.9509 6.23258 40.9508 6.2342 40.9507L6.23173 40.9509ZM42.5335 40.9509C42.5335 40.9509 42.5327 40.9509 42.531 40.9507L42.5335 40.9509ZM17.8826 28.9676C17.8826 31.6881 20.8505 33.3685 23.1833 31.9688L29.796 28.0012C32.0617 26.6418 32.0617 23.3582 29.796 21.9988L23.1833 18.0312C20.8505 16.6315 17.8826 18.3119 17.8826 21.0324V28.9676Z" stroke="white" stroke-width="3"/>
</svg>
