<svg width="55" height="50" viewBox="0 0 55 50" fill="none" xmlns="http://www.w3.org/2000/svg">
<path d="M53.9773 44.8864H5.11364V0.568182C5.11364 0.255682 4.85795 0 4.54545 0H0.568182C0.255682 0 0 0.255682 0 0.568182V49.4318C0 49.7443 0.255682 50 0.568182 50H53.9773C54.2898 50 54.5455 49.7443 54.5455 49.4318V45.4545C54.5455 45.142 54.2898 44.8864 53.9773 44.8864ZM12.6278 33.9276C12.848 34.1477 13.2031 34.1477 13.4304 33.9276L23.2528 24.1548L32.3153 33.2741C32.5355 33.4943 32.8977 33.4943 33.1179 33.2741L52.6776 13.7216C52.8977 13.5014 52.8977 13.1392 52.6776 12.919L49.8651 10.1065C49.7583 10.0008 49.6141 9.94148 49.4638 9.94148C49.3135 9.94148 49.1693 10.0008 49.0625 10.1065L32.7273 26.4347L23.679 17.3295C23.5722 17.2238 23.428 17.1645 23.2777 17.1645C23.1274 17.1645 22.9832 17.2238 22.8764 17.3295L9.82244 30.3054C9.7167 30.4122 9.65738 30.5564 9.65738 30.7067C9.65738 30.857 9.7167 31.0012 9.82244 31.108L12.6278 33.9276Z" fill="#000"/>
</svg>
