<svg width="62" height="50" viewBox="0 0 62 50" fill="none" xmlns="http://www.w3.org/2000/svg">
<path d="M36.3181 22.0801L30.5895 19.4661L36.3181 16.8521L38.9321 11.1235L41.5462 16.8521L47.2747 19.4661L41.5462 22.0801L38.9321 27.8087L36.3181 22.0801ZM8.3426 33.3704L10.9566 27.6418L16.6852 25.0278L10.9566 22.4138L8.3426 16.6852L5.72859 22.4138L0 25.0278L5.72859 27.6418L8.3426 33.3704ZM20.8565 19.4661L23.8877 12.7642L30.5895 9.73304L23.8877 6.70189L20.8565 0L17.8254 6.70189L11.1235 9.73304L17.8254 12.7642L20.8565 19.4661Z" fill="#69FE8B"/>
<path d="M9.73283 50L26.418 33.2869L37.5415 44.4104L61.1789 17.8253L57.2579 13.9043L37.5415 36.0678L26.418 24.9443L5.56152 45.8287L9.73283 50Z" fill="#EEEEEE"/>
</svg>
