<svg width="50" height="50" viewBox="0 0 50 50" fill="none" xmlns="http://www.w3.org/2000/svg">
<path d="M44.6429 35.7143V26.7857C44.6419 25.8388 44.2653 24.9309 43.5958 24.2614C42.9262 23.5918 42.0183 23.2152 41.0714 23.2143H26.7857V14.2857H32.1429C33.0898 14.2848 33.9976 13.9082 34.6672 13.2386C35.3368 12.5691 35.7133 11.6612 35.7143 10.7143V3.57143C35.7133 2.62452 35.3368 1.71666 34.6672 1.04709C33.9976 0.377523 33.0898 0.000945494 32.1429 0H17.8571C16.9102 0.000945494 16.0024 0.377523 15.3328 1.04709C14.6632 1.71666 14.2867 2.62452 14.2857 3.57143V10.7143C14.2867 11.6612 14.6632 12.5691 15.3328 13.2386C16.0024 13.9082 16.9102 14.2848 17.8571 14.2857H23.2143V23.2143H8.92857C7.98166 23.2152 7.0738 23.5918 6.40423 24.2614C5.73467 24.9309 5.35809 25.8388 5.35714 26.7857V35.7143H0V50H14.2857V35.7143H8.92857V26.7857H23.2143V35.7143H17.8571V50H32.1429V35.7143H26.7857V26.7857H41.0714V35.7143H35.7143V50H50V35.7143H44.6429ZM17.8571 3.57143H32.1429V10.7143H17.8571V3.57143ZM10.7143 46.4286H3.57143V39.2857H10.7143V46.4286ZM28.5714 46.4286H21.4286V39.2857H28.5714V46.4286ZM46.4286 46.4286H39.2857V39.2857H46.4286V46.4286Z" fill="#EEEEEE"/>
<path fill-rule="evenodd" clip-rule="evenodd" d="M0 35.7144H14.2857V50.0001H0V35.7144ZM3.57143 39.2858V46.4286H10.7143V39.2858H3.57143Z" fill="#69FE8B"/>
<path fill-rule="evenodd" clip-rule="evenodd" d="M17.8569 35.7144H32.1426V50.0001H17.8569V35.7144ZM21.4284 39.2858V46.4286H28.5712V39.2858H21.4284Z" fill="#69FE8B"/>
<path fill-rule="evenodd" clip-rule="evenodd" d="M35.7144 35.7144H50.0001V50.0001H35.7144V35.7144ZM39.2858 39.2858V46.4286H46.4286V39.2858H39.2858Z" fill="#69FE8B"/>
<path fill-rule="evenodd" clip-rule="evenodd" d="M14.2856 3.57143C14.2856 1.59898 15.8846 0 17.8571 0H32.1428C34.1152 0 35.7142 1.59898 35.7142 3.57143V10.7143C35.7142 12.6867 34.1152 14.2857 32.1428 14.2857H17.8571C15.8846 14.2857 14.2856 12.6867 14.2856 10.7143V3.57143ZM32.1428 3.57143H17.8571V10.7143H32.1428V3.57143Z" fill="#69FE8B"/>
</svg>
