<svg width="54" height="50" viewBox="0 0 54 50" fill="none" xmlns="http://www.w3.org/2000/svg">
<path d="M21.1537 0H24.9999V15.3846H21.1537V0ZM13.4614 0H17.3076V15.3846H13.4614V0ZM36.5383 15.3846H32.6922C31.6724 15.3836 30.6947 14.9781 29.9737 14.257C29.2526 13.5359 28.8471 12.5582 28.846 11.5385V3.84615C28.8471 2.8264 29.2526 1.84871 29.9737 1.12764C30.6947 0.406564 31.6724 0.00101822 32.6922 0H36.5383C37.5581 0.00101822 38.5358 0.406564 39.2569 1.12764C39.9779 1.84871 40.3835 2.8264 40.3845 3.84615V11.5385C40.3835 12.5582 39.9779 13.5359 39.2569 14.257C38.5358 14.9781 37.5581 15.3836 36.5383 15.3846ZM32.6922 3.84615V11.5385H36.5383V3.84615H32.6922ZM36.5383 19.2308H40.3845V34.6154H36.5383V19.2308ZM13.4614 19.2308H17.3076V34.6154H13.4614V19.2308ZM28.846 34.6154H24.9999C23.9801 34.6144 23.0024 34.2088 22.2814 33.4877C21.5603 32.7667 21.1548 31.789 21.1537 30.7692V23.0769C21.1548 22.0572 21.5603 21.0795 22.2814 20.3584C23.0024 19.6373 23.9801 19.2318 24.9999 19.2308H28.846C29.8658 19.2318 30.8435 19.6373 31.5646 20.3584C32.2856 21.0795 32.6912 22.0572 32.6922 23.0769V30.7692C32.6912 31.789 32.2856 32.7667 31.5646 33.4877C30.8435 34.2088 29.8658 34.6144 28.846 34.6154ZM24.9999 23.0769V30.7692H28.846V23.0769H24.9999Z" fill="#69FE8B"/>
<path fill-rule="evenodd" clip-rule="evenodd" d="M13.4615 0H17.3077V15.3846H13.4615V0ZM46.1538 30.7689H50C51.0197 30.77 51.9974 31.1755 52.7185 31.8966C53.4396 32.6177 53.8451 33.5954 53.8462 34.6151V46.1536C53.8451 47.1733 53.4396 48.151 52.7185 48.8721C51.9974 49.5932 51.0197 49.9987 50 49.9997H3.84615C2.8264 49.9987 1.84871 49.5932 1.12764 48.8721C0.406564 48.151 0.00101822 47.1733 0 46.1536V34.6151C0.00101822 33.5954 0.406564 32.6177 1.12764 31.8966C1.84871 31.1755 2.8264 30.77 3.84615 30.7689H7.69231V34.6151H3.84615V46.1536H50V34.6151H46.1538V30.7689ZM11.5385 40.3846C11.5385 41.4467 10.6775 42.3077 9.61539 42.3077C8.55331 42.3077 7.69232 41.4467 7.69232 40.3846C7.69232 39.3225 8.55331 38.4615 9.61539 38.4615C10.6775 38.4615 11.5385 39.3225 11.5385 40.3846ZM25 0H21.1539V15.3846H25V0ZM13.4615 19.2309H17.3077V34.6155H13.4615V19.2309ZM40.3846 19.2309H36.5385V34.6155H40.3846V19.2309Z" fill="#EEEEEE"/>
</svg>
