<?xml version="1.0" encoding="UTF-8"?>
<svg id="Layer_1" data-name="Layer 1" xmlns="http://www.w3.org/2000/svg" viewBox="0 0 39.988979446542544 40">
  <defs>
    <style>
      .cls-1 {
        fill: #231f20;
      }
    </style>
  </defs>
  <path class="cls-1" d="M19.892031161692103,23.903501073165899c-2.469297207452655,0-4.522209109670257-2.000481967696032-4.576675158155012-4.459089576846964-.01221668377184-.576220251256018,.443872843723511-1.052670918370495,1.019584066487369-1.065905659123018,.560949396539399-.018325025659578,1.052670918369586,.443872843721692,1.064887602142335,1.019075037995208,.029523652449825,1.334672702110765,1.147350217604071,2.420939500854729,2.492203489525309,2.420939500854729,1.368268582484234,0,2.481004862735062-1.11273628024901,2.481004862735062-2.481004862735062,0-1.374376924370154-1.112736280250829-2.4922034895244-2.481004862735062-2.4922034895244-.726892684444465,0-1.41357211814011,.318651835057608-1.88493250034935,.873492889711997-.372608855052022,.438782558816456-1.030782693278525,.491721521830186-1.469056223605548,.120130723758848-.439291587307707-.372608855052022-.492739578811779-1.031291721768866-.120130723759758-1.470074280585322,.86789357631551-1.022129208939077,2.134356460698655-1.608530030003749,3.474119447714656-1.608530030003749,2.517654914050581,0,4.565985559853289,2.053420930707944,4.565985559853289,4.577184186642626,0,2.5176549140524-2.048330645802707,4.565985559855108-4.565985559853289,4.565985559855108Z"/>
  <g>
    <path class="cls-1" d="M11.647296700939478,11.499494816473998l-1.462947881718719-1.484327078319438c2.369527623312933-2.33440465746844,5.494453526539473-3.750521918060258,8.798557458424511-3.987729194636813,2.749262877232468-.199539168279443,5.464420845599307,.407222792406174,7.850746409099884,1.745967722440582l-1.019075037995208,1.818249768093665c-2.031532705617792-1.138187704774282-4.340994967051302-1.647216195282454-6.682526023385435-1.485345135301031-2.809837267603143,.202593339222403-5.467984045033518,1.406954747762938-7.484754924425033,3.393183917723036Z"/>
    <path class="cls-1" d="M19.986201432436246,34.005680495780325c-7.267908787468514,.001018056980683-13.428680608083596-5.628837048032437-13.964178580096814-12.985316792850426-.200557225260127-2.75893441855078,.4123130773105-5.497507697482433,1.772437203947447-7.917429141356479,.28200178374118-.501902091639749,.916760311404687-.680062063317564,1.419171431534778-.398060279576384,.501902091641568,.282001783742089,.680571091808815,.918287396875712,.398060279577294,1.420189488516371-1.159057872885569,2.06156538655614-1.680812075655922,4.393933930062303-1.50977850284562,6.744627499226226,.476959695605728,6.552214729814295,6.187750330611379,11.498953600568711,12.759308143065937,11.019448762510365,6.552723758304637-.47746872409698,11.495899429624842-6.196912843441169,11.019448762510365-12.749127573255464-.195466940354891-2.69072460082316-1.259845514006884-5.165621121671393-3.077077225119865-7.156940576536726-.387879709765912-.424529761084159-.357847028826654-1.084230684781687,.067191760746937-1.472110394548508,.427074903536777-.389915823729098,1.086775827234305-.357338000336313,1.473128451529192,.067191760746937,2.135883546170589,2.339494942373676,3.386566547347684,5.248083737133129,3.616647425056726,8.411186777148032,.559931339559625,7.698546890438593-5.248592765623471,14.417722965139546-12.948157713042747,14.978672361678036-.34410325958379,.025451424526182-.687188462185077,.037668108298021-1.02620143686363,.037668108298021Z"/>
    <path class="cls-1" d="M28.04157729472081,12.999092749510964c-.75030799500928,0-1.467529138133614-.26673092902638-2.040695218445762-.761506621800436-.632213385211799-.546696598804374-1.01398475309179-1.306167106642533-1.074559143462466-2.139955774093323-.060574390370675-.832770610471016,.207174595636388-1.64008979641585,.75336216595133-2.271285124646056,.546187570314942-.63221338520998,1.306167106642533-1.013984753090881,2.139446745604801-1.074050114970305,1.715426013010074-.132347407532507,3.221641316422392,1.172801642129343,3.346353296596135,2.892299883064879,.060574390370675,.832770610469197-.207174595636388,1.640089796414941-.75336216595133,2.271285124645146-.546187570314942,.63221338520998-1.306167106642533,1.013984753090881-2.139446745602982,1.074050114970305-.077372330557409,.006108341886829-.154235632624477,.009162512829789-.231098934689726,.009162512829789Zm.004581256413076-4.169961394239181c-.024942396034021,0-.050393820560203,0-.076354273574907,.002036113962276-.277420527327195,.020361139620036-.530407687108891,.147618262246397-.712639886711258,.358356057316996s-.271312185441275,.479504838057437-.250951045820329,.757434393874973c.019852111130604,.276911498836853,.147109233756055,.530407687108891,.357847028826654,.712639886711258,.211246823560941,.182232199601458,.480013866548688,.27589344185526,.757943422366225,.251460074310671,.277420527327195-.020361139620036,.530407687108891-.147618262247306,.712639886711258-.358356057316996,.182232199600548-.21073779506969,.271312185439456-.479504838058347,.250951045820329-.757434393874973-.039704222259388-.547714655786876-.498338892208267-.966136074984206-1.039436177617972-.966136074984206Z"/>
  </g>
  <g>
    <path class="cls-1" d="M19.965331264324959,40c-4.795048380581648,0-9.379358966093605-1.701173215276867-13.044364097749167-4.868348483216323C2.880299008926158,31.63869801492001,.441543510903102,26.781548158496662,.054172829627532,21.455074033823621c-.320178920529543-4.404114499871866,.783394846891497-8.683007991079648,3.191608635483135-12.374482604241166,.315088635624306-.481540952020623,.96104579007806-.615924473514497,1.442586742098683-.303380980341899,.482049980510965,.314579607133055,.617960587475864,.961045790077151,.303380980341899,1.443604799078457-2.156753714280057,3.304612960376289-3.144778014356234,7.137597493899193-2.857685945709818,11.083586352314342,.346648402035498,4.770615013037968,2.530889654804014,9.12077249291724,6.150591250804609,12.249261595576172,3.619192567509344,3.128489102660751,8.239644175847388,4.65048428927912,13.010768217376608,4.313507428561934,3.856908872576241-.279965669778903,7.448613901598947-1.761238577155382,10.387235377298566-4.281947662149832,.437764501837592-.375663025994072,1.095429311571934-.324760176943528,1.470074280587141,.111986267911561,.37515399750373,.436746444856908,.324760176943528,1.095429311571934-.11198626791338,1.470074280587141-3.280179592829882,2.813909495525877-7.289287984069233,4.466215975713567-11.59414192829172,4.778759468885255-.495284721264397,.036650051315519-.989551385548111,.053957019994414-1.481272907378298,.053957019994414Z"/>
    <path class="cls-1" d="M36.022125968899672,31.968548476768774l-1.673685676789319-1.244065630800833c2.574157076496704-3.462411792432249,3.820258821258903-7.731124713829558,3.508224356579376-12.021216831828497-.347666459018001-4.773669183980928-2.532416740275949-9.12688083480225-6.152118336276544-12.256387994443685-3.619192567508435-3.128489102659842-8.23404486245272-4.65964680210709-13.008732103414332-4.313507428561934-4.255987209134219,.302362923361216-8.260005315467424,2.12366686239784-11.275999121725363,5.129989127335648l-1.472110394548508-1.476182622472152C9.318491356866616,2.427589058646845,13.792851788429289,.391475096615977,18.546159832790181,.05449823590061c5.326983153161564-.389915823729098,10.48140564804271,1.322456018338926,14.522073805692344,4.815409520202593,4.040668157651453,3.493971558844351,6.479932684163941,8.353157529230884,6.868321422420195,13.682685824845976,.347666459016182,4.787921981715044-1.042490348560023,9.552428652867093-3.914429092003047,13.415954895819596Z"/>
    <path class="cls-1" d="M33.936127214798944,36.148690440817518c-.75030799500928,0-1.467529138133614-.266730929024561-2.040695218445762-.7625246787793-.631704356719638-.5456785418246-1.01347572459963-1.30514904966185-1.074050114970305-2.138937717114459-.060574390370675-.832770610470106,.207174595636388-1.640089796414031,.75336216595133-2.271285124645146,.546187570314942-.63221338520998,1.306167106642533-1.013984753089971,2.139446745602982-1.074050114970305,.83378866745079-.064137589804886,1.640598824906192,.206665567146047,2.271794153135488,.75336216595133,.631704356719638,.5456785418246,1.013475724601449,1.30514904966185,1.074050114972124,2.13893771711264,.060574390370675,.832770610471925-.207174595636388,1.64008979641585-.75336216595133,2.271285124645146-.546187570314942,.632213385211799-1.306167106642533,1.01398475309179-2.139446745604801,1.074050114972124-.07737233055559,.00610834188592-.154235632622658,.00916251282797-.231098934689726,.00916251282797Zm.00610834188592-4.169961394238271c-.025451424526182,0-.051411877540886,0-.077372330557409,.002036113963186-.277420527327195,.020361139619126-.530407687108891,.147618262246397-.712639886711258,.358356057315177-.182232199600548,.2107377950706-.271312185439456,.479504838060166-.250951045820329,.757434393875883,.019852111130604,.276911498836853,.147109233757874,.53040768711071,.357847028828473,.712639886711258,.210737795068781,.182232199602367,.477977752585502,.274875384875486,.757434393874064,.251460074310671,.277420527327195-.020361139620945,.530407687108891-.147618262246397,.712639886711258-.358356057316996s.271312185441275-.479504838058347,.250951045820329-.757434393875883c-.019852111130604-.277929555817536-.147109233756055-.530407687108891-.357847028826654-.712639886709439-.190885683939996-.164925230925292-.430129074478828-.253496188273857-.680062063318474-.253496188273857Z"/>
  </g>
  <g>
    <path class="cls-1" d="M18.50238338260624,28.942883129191614c-.063628561313635,0-.128275179607954-.00610834188592-.192921797902272-.018325025657759-4.046267471045212-.758452450856566-7.081095331452161-4.154690539524381-7.379895055380075-8.260514343957766-.10231472659234-1.410008918706808,.125730037155336-2.833252578166139,.659700923697528-4.114986317264993,.221427393371414-.530407687108891,.829716439527147-.783903875382748,1.363687326070249-.560949396540309,.531425744089574,.220918364881072,.782376789909904,.831752553491242,.561458425029741,1.363178297578997-.41536724825437,.995659727434031-.585382764083988,2.059529272595682-.504956262583619,3.162084983036038,.230080877709952,3.1620849830324,2.5670306776301,5.77849142424202,5.683812125008444,6.362856131345325,.566039681445545,.105877926025642,.938648536497567,.650538410869558,.832770610471925,1.216578092313284-.094170270745963,.500884034658156-.531934772581735,.850077579147182-1.023656294411921,.850077579147182Z"/>
    <path class="cls-1" d="M22.963000044924229,28.589617356779854l-.680062063318474-1.970958315245298c2.992069467205511-1.031291721768866,4.920269389247551-3.960241656150174,4.690188511538508-7.122326639184394-.135910606966718-1.870170674124893-.989042357055951-3.573380003363127-2.402105446704809-4.796066437562331-1.412554061160336-1.221668377218521-3.21502394604795-1.813159483189338-5.082649477719315-1.683866246600701-1.668086363393741,.125221008664994-3.177355837749928,.802228901041417-4.362374163651111,1.958741631474368l-1.455821482852116-1.492471534168544c1.517922958693816-1.481272907377388,3.530112581670437-2.385307506518984,5.664469042369092-2.54514245253813,2.422975614816096-.175105800734855,4.766542785113415,.600653618797878,6.600572436413131,2.186786395220224s2.941166618153147,3.795316425224883,3.117799504359937,6.221346210984848c.298290695436663,4.102769633493153-2.205620449371054,7.904194400603956-6.090016860434844,9.243957387619957Z"/>
    <path class="cls-1" d="M20.572602253500918,31.147994550070507c-.750307995007461,0-1.467529138133614-.26673092902638-2.040695218444853-.7625246787793-.631704356720547-.5456785418246-1.013475724600539-1.30514904966185-1.074050114972124-2.138937717114459-.060574390369766-.832770610470106,.206665567146956-1.64008979641585,.752853137460988-2.271285124645146,.546696598805283-.63221338520998,1.306167106643443-1.01398475309179,2.139955774094233-1.074050114972124,.836842838394659-.065155646783751,1.64008979641585,.207683624128549,2.271794153135488,.753362165953149,.631704356721457,.545678541822781,1.013475724601449,1.305149049660031,1.074050114972124,2.13893771711264,.060574390370675,.832770610470106-.207174595636388,1.64008979641585-.75336216595133,2.271285124645146-.546187570314942,.632213385211799-1.306167106642533,1.01398475309179-2.139446745604801,1.074050114972124-.07737233055559,.00610834188592-.154235632622658,.00916251282797-.231098934689726,.00916251282797Zm.00610834188592-4.169961394238271c-.025451424524363,0-.051411877540886,0-.077372330557409,.002036113961367-.277929555817536,.020361139620945-.530916715599233,.147618262248216-.7131489152016,.358356057316996-.181723171110207,.2107377950706-.270803156949114,.479504838058347-.250442017328169,.756416336895199,.019852111128785,.277929555817536,.147109233756055,.531425744089574,.357847028826654,.713657943691942,.210228766578439,.182232199602367,.480013866548688,.274875384873667,.757434393874064,.251460074310671,.277420527327195-.020361139620945,.53040768711071-.147618262248216,.712639886711258-.358356057316996,.182232199602367-.2107377950706,.271312185441275-.479504838058347,.250951045820329-.757434393875883-.019852111130604-.277929555817536-.147109233756055-.530407687108891-.357847028826654-.712639886711258-.190885683939996-.164925230923473-.430129074478828-.253496188272038-.680062063318474-.253496188272038Z"/>
  </g>
  <path class="cls-1" d="M19.849272768488845,20.726145235417789c-.266730929024561,0-.533461858050941-.101805698102908-.737073254254938-.305417094305085L5.941087322348722,7.249106920735358c-.407222792406174-.407222792406174-.407222792406174-1.066923716102792,0-1.474146508508966s1.066923716103702-.407222792406174,1.474146508509875,0l13.171112191885186,13.171621220374618c.407222792406174,.407222792406174,.407222792406174,1.066923716105521,0,1.474146508511694-.203611396202177,.203611396202177-.470342325228557,.305417094305085-.737073254254938,.305417094305085Z"/>
</svg>