<svg width="49" height="50" viewBox="0 0 49 50" fill="none" xmlns="http://www.w3.org/2000/svg">
<path d="M24.3655 0C10.9848 0 0 10.4305 0 23.3503C0 30.2335 3.18782 36.3492 8.12183 40.6091V50L17.133 45.4944C19.4233 46.1848 21.8193 46.7005 24.3655 46.7005C37.7462 46.7005 48.731 36.2701 48.731 23.3503C48.731 10.4305 37.7462 0 24.3655 0ZM24.3655 4.06091C35.6528 4.06091 44.67 12.7228 44.67 23.3503C44.67 33.9777 35.6528 42.6396 24.3655 42.6396C21.9391 42.6396 19.6223 42.1787 17.4497 41.4335L16.6254 41.1797L12.1827 43.401V38.8325L11.4213 38.197C6.91574 34.6457 4.06091 29.3239 4.06091 23.3503C4.06091 12.7228 13.0782 4.06091 24.3655 4.06091ZM22.0812 16.9421L9.83553 29.8863L20.8122 23.7949L26.6497 30.0772L38.7695 16.9401L28.0447 22.9706L22.0812 16.9421Z" fill="#000"/>
</svg>
