<svg width="56" height="54" viewBox="0 0 56 54" fill="none" xmlns="http://www.w3.org/2000/svg">
<path d="M37.7143 35.3333C37.7143 32.7024 30.2524 30.5714 21.0476 30.5714M37.7143 35.3333C37.7143 37.9643 30.2524 40.0952 21.0476 40.0952C11.8429 40.0952 4.38095 37.9643 4.38095 35.3333M37.7143 35.3333V47.0881C37.7143 49.8 30.2524 52 21.0476 52C11.8429 52 4.38095 49.8024 4.38095 47.0881V35.3333M37.7143 35.3333C46.819 35.3333 54.381 32.9833 54.381 30.5714V6.7619M21.0476 30.5714C11.8429 30.5714 4.38095 32.7024 4.38095 35.3333M21.0476 30.5714C10.5286 30.5714 2 28.2214 2 25.8095V13.9048M21.0476 9.14286C10.5286 9.14286 2 11.2738 2 13.9048M2 13.9048C2 16.5357 10.5286 18.6667 21.0476 18.6667C21.0476 21.0786 28.7929 23.4286 37.8976 23.4286C47 23.4286 54.381 21.0786 54.381 18.6667M54.381 6.7619C54.381 4.13095 47 2 37.8976 2C28.7929 2 21.4143 4.13095 21.4143 6.7619M54.381 6.7619C54.381 9.39286 47 11.5238 37.8976 11.5238C28.7952 11.5238 21.4143 9.39286 21.4143 6.7619M21.4143 6.7619V30.9667" stroke="white" stroke-width="3"/>
</svg>
