<svg width="1664" height="1408" viewBox="0 0 1664 1408" fill="none" xmlns="http://www.w3.org/2000/svg">
<path d="M768 192V896C768 965.333 754.5 1031.5 727.5 1094.5C700.5 1157.5 664 1212 618 1258C572 1304 517.5 1340.5 454.5 1367.5C391.5 1394.5 325.333 1408 256 1408H192C174.667 1408 159.667 1401.67 147 1389C134.333 1376.33 128 1361.33 128 1344V1216C128 1198.67 134.333 1183.67 147 1171C159.667 1158.33 174.667 1152 192 1152H256C326.667 1152 387 1127 437 1077C487 1027 512 966.667 512 896V864C512 837.333 502.667 814.667 484 796C465.333 777.333 442.667 768 416 768H192C138.667 768 93.3333 749.333 56 712C18.6667 674.667 0 629.333 0 576V192C0 138.667 18.6667 93.3333 56 56C93.3333 18.6667 138.667 0 192 0H576C629.333 0 674.667 18.6667 712 56C749.333 93.3333 768 138.667 768 192ZM1664 192V896C1664 965.333 1650.5 1031.5 1623.5 1094.5C1596.5 1157.5 1560 1212 1514 1258C1468 1304 1413.5 1340.5 1350.5 1367.5C1287.5 1394.5 1221.33 1408 1152 1408H1088C1070.67 1408 1055.67 1401.67 1043 1389C1030.33 1376.33 1024 1361.33 1024 1344V1216C1024 1198.67 1030.33 1183.67 1043 1171C1055.67 1158.33 1070.67 1152 1088 1152H1152C1222.67 1152 1283 1127 1333 1077C1383 1027 1408 966.667 1408 896V864C1408 837.333 1398.67 814.667 1380 796C1361.33 777.333 1338.67 768 1312 768H1088C1034.67 768 989.333 749.333 952 712C914.667 674.667 896 629.333 896 576V192C896 138.667 914.667 93.3333 952 56C989.333 18.6667 1034.67 0 1088 0H1472C1525.33 0 1570.67 18.6667 1608 56C1645.33 93.3333 1664 138.667 1664 192Z" fill="black"/>
</svg>
