<svg width="50" height="50" viewBox="0 0 50 50" fill="none" xmlns="http://www.w3.org/2000/svg">
<path d="M25 0C11.4475 0 0 11.45 0 25C0 38.55 11.4475 50 25 50C38.5525 50 50 38.55 50 25C50 11.45 38.5525 0 25 0ZM25 45C14.1575 45 5 35.84 5 25C5 15.005 12.7875 6.4575 22.5 5.1825V10.225C15.4175 11.4225 10 17.5825 10 25C10 33.2725 16.7275 40 25 40C28.9875 40 32.75 38.435 35.5925 35.5925L32.0575 32.055C31.1343 32.9882 30.0352 33.729 28.8238 34.2345C27.6124 34.74 26.3127 35.0002 25 35C19.485 35 15 30.515 15 25C15 20.355 18.1975 16.4725 22.5 15.355V20.72C21.025 21.6025 20 23.2025 20 25C20 27.7025 22.2975 30 25 30C27.7025 30 30 27.7025 30 25C30 23.2025 28.975 21.6025 27.5 20.72V5.1825C37.2125 6.4575 45 15.005 45 25C45 35.84 35.8425 45 25 45Z" fill="#000"/>
</svg>
