<svg width="50" height="50" viewBox="0 0 50 50" fill="none" xmlns="http://www.w3.org/2000/svg">
<path d="M42.675 7.325L39.15 10.85C42.8965 14.6061 45.0003 19.6948 45 25C45 36.05 36.05 45 25 45C13.95 45 5 36.05 5 25C5 14.8 12.625 6.4 22.5 5.175V10.225C15.4 11.425 10 17.575 10 25C10 33.275 16.725 40 25 40C33.275 40 40 33.275 40 25C40 20.85 38.325 17.1 35.6 14.4L32.075 17.925C33.875 19.75 35 22.25 35 25C35 30.525 30.525 35 25 35C19.475 35 15 30.525 15 25C15 20.35 18.2 16.475 22.5 15.35V20.7C21 21.575 20 23.15 20 25C20 27.75 22.25 30 25 30C27.75 30 30 27.75 30 25C30 23.15 29 21.55 27.5 20.7V0H25C11.2 0 0 11.2 0 25C0 38.8 11.2 50 25 50C38.8 50 50 38.8 50 25C50 18.1 47.2 11.85 42.675 7.325Z" fill="white"/>
</svg>
