<svg width="53" height="50" viewBox="0 0 53 50" fill="none" xmlns="http://www.w3.org/2000/svg">
<path d="M48.1861 7.82067L27.3327 0L25.4766 4.94535L32.9619 7.75466H5.28067C2.36838 7.75466 0 10.123 0 13.0353V44.7193C0 47.6316 2.36838 50 5.28067 50H47.526C50.4383 50 52.8067 47.6316 52.8067 44.7193V13.0353C52.8067 10.3475 50.7815 8.15071 48.1861 7.82067ZM5.28067 44.7193V26.237H47.526V20.9563H5.28067V13.0353H47.526L47.5286 44.7193H5.28067Z" fill="black"/>
<path d="M38.2844 42.0776C41.93 42.0776 44.8853 39.1224 44.8853 35.4768C44.8853 31.8313 41.93 28.876 38.2844 28.876C34.6389 28.876 31.6836 31.8313 31.6836 35.4768C31.6836 39.1224 34.6389 42.0776 38.2844 42.0776Z" fill="black"/>
<path d="M10.5615 34.1562H23.7606V39.4369H10.5615V34.1562Z" fill="black"/>
</svg>
