<svg width="67" height="50" viewBox="0 0 67 50" fill="none" xmlns="http://www.w3.org/2000/svg">
<path d="M62.5 50C62.5 50 66.6667 50 66.6667 45.8333C66.6667 41.6667 62.5 29.1667 45.8333 29.1667C29.1667 29.1667 25 41.6667 25 45.8333C25 50 29.1667 50 29.1667 50H62.5ZM29.2583 45.8333C29.2276 45.8291 29.197 45.8235 29.1667 45.8167C29.1708 44.7167 29.8625 41.525 32.3333 38.65C34.6333 35.9542 38.675 33.3333 45.8333 33.3333C52.9875 33.3333 57.0292 35.9583 59.3333 38.65C61.8042 41.525 62.4917 44.7208 62.5 45.8167L62.4667 45.825C62.4473 45.8283 62.4278 45.8311 62.4083 45.8333H29.2583ZM45.8333 20.8333C48.0435 20.8333 50.1631 19.9554 51.7259 18.3926C53.2887 16.8298 54.1667 14.7101 54.1667 12.5C54.1667 10.2899 53.2887 8.17025 51.7259 6.60744C50.1631 5.04464 48.0435 4.16667 45.8333 4.16667C43.6232 4.16667 41.5036 5.04464 39.9408 6.60744C38.378 8.17025 37.5 10.2899 37.5 12.5C37.5 14.7101 38.378 16.8298 39.9408 18.3926C41.5036 19.9554 43.6232 20.8333 45.8333 20.8333ZM58.3333 12.5C58.3333 14.1415 58.01 15.767 57.3818 17.2835C56.7536 18.8001 55.8329 20.1781 54.6722 21.3388C53.5114 22.4996 52.1334 23.4203 50.6169 24.0485C49.1003 24.6767 47.4749 25 45.8333 25C44.1918 25 42.5664 24.6767 41.0498 24.0485C39.5332 23.4203 38.1552 22.4996 36.9945 21.3388C35.8338 20.1781 34.913 18.8001 34.2848 17.2835C33.6567 15.767 33.3333 14.1415 33.3333 12.5C33.3333 9.18479 34.6503 6.00537 36.9945 3.66117C39.3387 1.31696 42.5181 0 45.8333 0C49.1485 0 52.328 1.31696 54.6722 3.66117C57.0164 6.00537 58.3333 9.18479 58.3333 12.5ZM28.9 30.3333C27.2333 29.8085 25.5151 29.4635 23.775 29.3042C22.7972 29.2112 21.8155 29.1653 20.8333 29.1667C4.16667 29.1667 0 41.6667 0 45.8333C0 48.6125 1.3875 50 4.16667 50H21.7333C21.1156 48.6992 20.8076 47.2731 20.8333 45.8333C20.8333 41.625 22.4042 37.325 25.375 33.7333C26.3875 32.5083 27.5667 31.3625 28.9 30.3333ZM20.5 33.3333C18.034 37.0386 16.7018 41.3826 16.6667 45.8333H4.16667C4.16667 44.75 4.85 41.5417 7.33333 38.65C9.60417 36 13.55 33.4167 20.5 33.3375V33.3333ZM6.25 14.5833C6.25 11.2681 7.56696 8.0887 9.91117 5.7445C12.2554 3.40029 15.4348 2.08333 18.75 2.08333C22.0652 2.08333 25.2446 3.40029 27.5888 5.7445C29.933 8.0887 31.25 11.2681 31.25 14.5833C31.25 17.8985 29.933 21.078 27.5888 23.4222C25.2446 25.7664 22.0652 27.0833 18.75 27.0833C15.4348 27.0833 12.2554 25.7664 9.91117 23.4222C7.56696 21.078 6.25 17.8985 6.25 14.5833ZM18.75 6.25C16.5399 6.25 14.4202 7.12797 12.8574 8.69078C11.2946 10.2536 10.4167 12.3732 10.4167 14.5833C10.4167 16.7935 11.2946 18.9131 12.8574 20.4759C14.4202 22.0387 16.5399 22.9167 18.75 22.9167C20.9601 22.9167 23.0798 22.0387 24.6426 20.4759C26.2054 18.9131 27.0833 16.7935 27.0833 14.5833C27.0833 12.3732 26.2054 10.2536 24.6426 8.69078C23.0798 7.12797 20.9601 6.25 18.75 6.25Z" fill="#000"/>
</svg>
