<svg width="56" height="50" viewBox="0 0 56 50" fill="none" xmlns="http://www.w3.org/2000/svg">
<path d="M53.8127 0.97307C53.2469 0.493587 52.5617 0.176385 51.8299 0.0551799C51.0982 -0.0660248 50.3473 0.0132973 49.6571 0.284715L2.59402 18.7683C1.76854 19.0828 1.06933 19.66 0.604055 20.4108C0.138777 21.1617 -0.0667695 22.0448 0.0190668 22.9239C0.0956465 23.8028 0.455063 24.6331 1.04342 25.2904C1.63178 25.9477 2.41736 26.3966 3.28238 26.5697L15.2394 28.9407V43.8805C15.2389 44.6887 15.4786 45.4789 15.928 46.1507C16.3773 46.8224 17.0161 47.3456 17.7633 47.6537C18.2578 47.8527 18.7855 47.9565 19.3185 47.9597C19.8542 47.9616 20.385 47.8565 20.8797 47.6508C21.3743 47.445 21.823 47.1427 22.1994 46.7614L28.828 40.1583L38.8474 48.9794C39.5871 49.6318 40.5381 49.9941 41.5243 49.9992C41.958 50.0082 42.3898 49.9391 42.799 49.7953C43.4718 49.5824 44.0774 49.1976 44.5558 48.6789C45.0343 48.1602 45.369 47.5256 45.527 46.8379L55.1129 4.97573C55.2805 4.25338 55.248 3.49902 55.0189 2.79377C54.7898 2.08852 54.3728 1.45906 53.8127 0.97307ZM16.7945 25.091L4.09821 22.567L39.6887 8.57047L16.7945 25.091ZM19.3185 43.8805V31.7961L25.7431 37.4559L19.3185 43.8805ZM41.5498 45.9201L20.5422 27.4365L50.8044 5.5876L41.5498 45.9201Z" fill="#000"/>
</svg>
