<svg width="36" height="50" viewBox="0 0 36 50" fill="none" xmlns="http://www.w3.org/2000/svg">
<path d="M8.94631 39.2857H26.8035V42.8571H8.94631V39.2857ZM12.5177 46.4286H23.232V50H12.5177V46.4286ZM17.8749 0C13.1389 0 8.59684 1.88137 5.24798 5.23024C1.89911 8.5791 0.017739 13.1211 0.017739 17.8571C-0.103021 20.4524 0.394121 23.0392 1.46827 25.4048C2.54241 27.7704 4.16287 29.8472 6.19631 31.4643C7.98202 33.125 8.94631 34.0714 8.94631 35.7143H12.5177C12.5177 32.4286 10.5356 30.5893 8.60703 28.8214C6.93802 27.5433 5.60787 25.8755 4.73306 23.964C3.85826 22.0525 3.46549 19.9557 3.58917 17.8571C3.58917 14.0683 5.09426 10.4347 7.77336 7.75562C10.4524 5.07653 14.0861 3.57143 17.8749 3.57143C21.6637 3.57143 25.2973 5.07653 27.9764 7.75562C30.6555 10.4347 32.1606 14.0683 32.1606 17.8571C32.2822 19.9572 31.8867 22.055 31.0087 23.9667C30.1308 25.8783 28.7972 27.5453 27.1249 28.8214C25.2142 30.6071 23.232 32.3929 23.232 35.7143H26.8035C26.8035 34.0714 27.7499 33.125 29.5535 31.4464C31.5855 29.8321 33.2052 27.7584 34.2793 25.3959C35.3535 23.0334 35.8514 20.4496 35.732 17.8571C35.732 15.5121 35.2701 13.19 34.3727 11.0235C33.4753 8.85698 32.16 6.88842 30.5018 5.23024C28.8436 3.57205 26.875 2.2567 24.7085 1.35929C22.542 0.461889 20.2199 0 17.8749 0Z" fill="white"/>
</svg>
