<svg width="50" height="50" viewBox="0 0 50 50" fill="none" xmlns="http://www.w3.org/2000/svg">
<path d="M46.2963 29.6299H35.1851C34.2031 29.6308 33.2616 30.0214 32.5672 30.7157C31.8728 31.4101 31.4823 32.3516 31.4813 33.3336V37.0373H21.1368L12.9627 28.8632V18.5187H16.6664C17.6484 18.5177 18.5899 18.1272 19.2843 17.4328C19.9786 16.7384 20.3692 15.7969 20.3701 14.8149V3.70373C20.3692 2.72174 19.9786 1.78025 19.2843 1.08588C18.5899 0.391509 17.6484 0.00098052 16.6664 0H5.5552C4.57321 0.00098052 3.63172 0.391509 2.93735 1.08588C2.24298 1.78025 1.85245 2.72174 1.85147 3.70373V14.8149C1.85245 15.7969 2.24298 16.7384 2.93735 17.4328C3.63172 18.1272 4.57321 18.5177 5.5552 18.5187H9.25894V28.8632L0.542201 37.5799C0.19503 37.9272 0 38.3981 0 38.8892C0 39.3802 0.19503 39.8512 0.542201 40.1985L9.80153 49.4578C10.1488 49.805 10.6198 50 11.1108 50C11.6019 50 12.0728 49.805 12.4201 49.4578L21.1368 40.7411H31.4813V44.4448C31.4823 45.4268 31.8728 46.3683 32.5672 47.0626C33.2616 47.757 34.2031 48.1475 35.1851 48.1485H46.2963C47.2783 48.1475 48.2197 47.757 48.9141 47.0626C49.6085 46.3683 49.999 45.4268 50 44.4448V33.3336C49.999 32.3516 49.6085 31.4101 48.9141 30.7157C48.2197 30.0214 47.2783 29.6308 46.2963 29.6299ZM5.5552 3.70373H16.6664V14.8149H5.5552V3.70373ZM11.1108 45.53L4.47001 38.8892L11.1108 32.2484L17.7516 38.8892L11.1108 45.53ZM35.1851 44.4448V33.3336H46.2963V44.4448H35.1851Z" fill="#000"/>
</svg>
