<svg width="51" height="50" viewBox="0 0 51 50" fill="none" xmlns="http://www.w3.org/2000/svg">
<path d="M27.6382 19.4472L19.9749 13.6935V36.3065L27.6382 30.5528L35.0502 25L27.6382 19.4472ZM27.6382 19.4472L19.9749 13.6935V36.3065L27.6382 30.5528L35.0502 25L27.6382 19.4472ZM27.6382 19.4472L19.9749 13.6935V36.3065L27.6382 30.5528L35.0502 25L27.6382 19.4472ZM22.4874 5.07538V0C17.4372 0.502513 12.8392 2.51256 9.1206 5.55276L12.6884 9.14573C15.5275 6.92936 18.9136 5.52284 22.4874 5.07538V5.07538ZM9.14573 12.6884L5.55276 9.1206C2.42415 12.9311 0.492226 17.5817 0 22.4874H5.07538C5.52764 18.8191 6.98492 15.4774 9.14573 12.6884ZM5.07538 27.5126H0C0.502513 32.5628 2.51256 37.1608 5.55276 40.8794L9.14573 37.2864C6.92553 34.4592 5.51827 31.08 5.07538 27.5126V27.5126ZM9.1206 44.4472C12.9336 47.5717 17.5829 49.5031 22.4874 50V44.9246C18.9136 44.4772 15.5275 43.0706 12.6884 40.8543L9.1206 44.4472V44.4472ZM50.1256 25C50.1256 37.9648 40.2764 48.6683 27.6382 50V44.9246C37.4874 43.6181 45.1005 35.1759 45.1005 25C45.1005 14.8241 37.4874 6.38191 27.6382 5.07538V0C40.2764 1.33166 50.1256 12.0352 50.1256 25Z" fill="black"/>
<path d="M27.636 19.4471L19.9727 13.6934V36.3064L27.636 30.5527L35.048 24.9999L27.636 19.4471ZM27.636 19.4471L19.9727 13.6934V36.3064L27.636 30.5527L35.048 24.9999L27.636 19.4471ZM27.636 19.4471L19.9727 13.6934V36.3064L27.636 30.5527L35.048 24.9999L27.636 19.4471Z" fill="black"/>
</svg>
