<svg width="26" height="50" viewBox="0 0 26 50" fill="none" xmlns="http://www.w3.org/2000/svg">
<path d="M16.4805 3.22914C16.6726 3.22914 16.7832 3.23721 16.7832 3.23721H20.9996L20.9778 8.08084H16.7897C14.4849 8.08084 14.5382 10.0489 14.5382 10.0489V17.7277H22.6933L21.555 22.5648H14.5116V46.7717H9.6728L9.66957 22.5648H3.24127L3.22835 17.7277H9.67199V10.2007C9.6727 3.63756 15.1235 3.22908 16.4805 3.22908V3.22914ZM20.9996 3.23716H21.0076H20.9996ZM16.4805 0C15.3197 0 13.0511 0.192181 10.9022 1.48704C8.86785 2.71087 6.44361 5.21739 6.44361 10.1999V14.4978H3.22906C2.37093 14.4978 1.54832 14.8401 0.94125 15.4472C0.641309 15.7483 0.403768 16.1057 0.242251 16.4989C0.0807333 16.892 -0.0015828 17.3132 2.30501e-05 17.7382L0.0129392 22.5754C0.0193974 24.3538 1.46361 25.7932 3.24202 25.7932H6.44124L6.44447 46.7709C6.44447 48.5542 7.89034 50 9.67355 50H14.5124C16.2956 50 17.7415 48.5542 17.7415 46.7709V25.7932H21.5558C22.9887 25.7932 24.2504 24.8487 24.6541 23.4739L25.7923 18.6367C26.0789 17.6608 25.8883 16.6057 25.2781 15.7927C24.9778 15.3907 24.5879 15.0643 24.1392 14.8395C23.6906 14.6147 23.1958 14.4977 22.694 14.4978H17.768V11.3115L20.9785 11.3099C22.7553 11.3099 24.1995 9.87378 24.2076 8.09537L24.2294 3.41561C24.2326 3.3562 24.2343 3.29671 24.2343 3.23721C24.2343 1.45395 22.7917 0.00812313 21.0084 0.00812313H16.8744C16.7816 0.0032795 16.6476 5.04544e-05 16.4805 0Z" fill="#000"/>
</svg>
