<svg width="51" height="50" viewBox="0 0 51 50" fill="none" xmlns="http://www.w3.org/2000/svg">
<path d="M49.845 24.0175C49.34 22.7975 48.2575 22.505 47.525 22.435V15C47.525 12.2425 45.2825 10 42.525 10H27.525V6.525C28.2875 5.84 28.775 4.855 28.775 3.75C28.775 2.75544 28.3799 1.80161 27.6767 1.09835C26.9734 0.395088 26.0196 0 25.025 0C24.0304 0 23.0766 0.395088 22.3734 1.09835C21.6701 1.80161 21.275 2.75544 21.275 3.75C21.275 4.855 21.7625 5.84 22.525 6.525V10H7.525C4.7675 10 2.525 12.2425 2.525 15V22.4925L2.32 22.5075C1.68993 22.553 1.10044 22.8353 0.670044 23.2977C0.239647 23.7601 0.000255613 24.3683 0 25V30C0 30.663 0.263392 31.2989 0.732233 31.7678C1.20107 32.2366 1.83696 32.5 2.5 32.5H2.525V45C2.525 47.7575 4.7675 50 7.525 50H42.525C45.2825 50 47.525 47.7575 47.525 45V32.5C48.188 32.5 48.8239 32.2366 49.2928 31.7678C49.7616 31.2989 50.025 30.663 50.025 30V25.155C50.0538 24.767 49.9922 24.3776 49.845 24.0175ZM7.525 45V15H42.525L42.5275 24.99L42.525 25V30L42.5275 30.0125L42.53 45H7.525Z" fill="#EEEEEE"/>
<path d="M16.2749 30C18.346 30 20.0249 27.7614 20.0249 25C20.0249 22.2386 18.346 20 16.2749 20C14.2038 20 12.5249 22.2386 12.5249 25C12.5249 27.7614 14.2038 30 16.2749 30Z" fill="#69FE8B"/>
<path d="M33.7749 30C35.846 30 37.5249 27.7614 37.5249 25C37.5249 22.2386 35.846 20 33.7749 20C31.7038 20 30.0249 22.2386 30.0249 25C30.0249 27.7614 31.7038 30 33.7749 30Z" fill="#69FE8B"/>
<path d="M15.0249 35H35.0249V40H15.0249V35Z" fill="#69FE8B"/>
</svg>
