<svg width="62" height="50" viewBox="0 0 62 50" fill="none" xmlns="http://www.w3.org/2000/svg">
<path d="M61.7094 0L58.8883 0.826465L8.40129 16.1855H0V33.8167H8.40349L12.7408 35.1258L12.6747 35.3308V35.4013C11.2598 40.056 13.8802 45.2308 18.7354 46.6941C18.7574 46.7008 18.7839 46.6875 18.8015 46.6941C23.4804 48.1157 28.6596 45.5261 30.0987 40.6334L30.1649 40.4262L58.8883 49.1757L61.7094 50V0ZM57.3015 5.9241V44.0781L9.43272 29.475L9.16163 29.4089H4.40781V20.5933H9.15943L9.43492 20.5272L57.3015 5.92189V5.9241ZM16.9414 36.4328L25.9642 39.1215L25.8981 39.3265V39.3926C25.1399 41.9712 22.4027 43.2318 20.0445 42.4935C17.466 41.7376 16.1392 39.0686 16.8753 36.7082V36.6421L16.9414 36.4328Z" fill="#000"/>
</svg>
