<svg width="45" height="50" viewBox="0 0 45 50" fill="none" xmlns="http://www.w3.org/2000/svg">
<path d="M37.5 10.0082H28.525L34.275 4.28435C34.5081 4.0513 34.693 3.77463 34.8191 3.47014C34.9453 3.16565 35.0102 2.8393 35.0102 2.50972C35.0102 2.18013 34.9453 1.85378 34.8191 1.54929C34.693 1.2448 34.5081 0.968127 34.275 0.735079C34.0419 0.50203 33.7652 0.317166 33.4606 0.191041C33.1561 0.0649156 32.8296 0 32.5 0C31.8342 0 31.1958 0.264416 30.725 0.735079L22.5 8.98339L14.275 0.735079C14.0419 0.50203 13.7652 0.317166 13.4606 0.191041C13.1561 0.0649156 12.8296 0 12.5 0C12.1704 0 11.8439 0.0649156 11.5394 0.191041C11.2348 0.317166 10.9581 0.50203 10.725 0.735079C10.2542 1.20574 9.98977 1.8441 9.98977 2.50972C9.98977 2.8393 10.0547 3.16565 10.1809 3.47014C10.307 3.77463 10.4919 4.0513 10.725 4.28435L16.475 10.0082H7.5C5.51088 10.0082 3.60322 10.7982 2.1967 12.2044C0.790177 13.6107 0 15.5179 0 17.5066V42.5015C0 44.4902 0.790177 46.3975 2.1967 47.8037C3.60322 49.21 5.51088 50 7.5 50H37.5C39.4891 50 41.3968 49.21 42.8033 47.8037C44.2098 46.3975 45 44.4902 45 42.5015V17.5066C45 15.5179 44.2098 13.6107 42.8033 12.2044C41.3968 10.7982 39.4891 10.0082 37.5 10.0082ZM40 42.5015C40 43.1644 39.7366 43.8002 39.2678 44.2689C38.7989 44.7377 38.163 45.001 37.5 45.001H7.5C6.83696 45.001 6.20107 44.7377 5.73223 44.2689C5.26339 43.8002 5 43.1644 5 42.5015V25.0051C5 24.3422 5.26339 23.7065 5.73223 23.2377C6.20107 22.769 6.83696 22.5056 7.5 22.5056H37.5C38.163 22.5056 38.7989 22.769 39.2678 23.2377C39.7366 23.7065 40 24.3422 40 25.0051V42.5015Z" fill="black"/>
</svg>
