<svg width="50" height="50" viewBox="0 0 50 50" fill="none" xmlns="http://www.w3.org/2000/svg">
<path fill-rule="evenodd" clip-rule="evenodd" d="M25 4.54545C13.7033 4.54545 4.54545 13.7033 4.54545 25C4.54545 36.2967 13.7033 45.4545 25 45.4545C36.2967 45.4545 45.4545 36.2967 45.4545 25C45.4545 13.7033 36.2967 4.54545 25 4.54545ZM0 25C0 11.1929 11.1929 0 25 0C38.8071 0 50 11.1929 50 25C50 38.8071 38.8071 50 25 50C11.1929 50 0 38.8071 0 25Z" fill="black"/>
<path fill-rule="evenodd" clip-rule="evenodd" d="M26.8923 5.62036C26.07 4.75341 25.4296 4.54545 24.9994 4.54545C24.5693 4.54545 23.9288 4.75341 23.1065 5.62036C22.2797 6.49211 21.4301 7.87551 20.6687 9.77346C19.1509 13.5567 18.1612 18.9392 18.1612 25C18.1612 31.0608 19.1509 36.4433 20.6687 40.2265C21.4301 42.1245 22.2797 43.5079 23.1065 44.3796C23.9288 45.2466 24.5693 45.4545 24.9994 45.4545C25.4296 45.4545 26.07 45.2466 26.8923 44.3796C27.7191 43.5079 28.5688 42.1245 29.3302 40.2265C30.848 36.4433 31.8377 31.0608 31.8377 25C31.8377 18.9392 30.848 13.5567 29.3302 9.77346C28.5688 7.87551 27.7191 6.49211 26.8923 5.62036ZM33.563 8.08532C35.3451 12.5277 36.3965 18.5089 36.3965 25C36.3965 31.4911 35.3451 37.4723 33.563 41.9147C32.6744 44.1296 31.5593 46.0745 30.2045 47.5029C28.8452 48.936 27.087 50 24.9994 50C22.9118 50 21.1537 48.936 19.7943 47.5029C18.4395 46.0745 17.3245 44.1296 16.4359 41.9147C14.6537 37.4723 13.6024 31.4911 13.6024 25C13.6024 18.5089 14.6537 12.5277 16.4359 8.08532C17.3245 5.87044 18.4395 3.92552 19.7943 2.49714C21.1537 1.06396 22.9118 0 24.9994 0C27.087 0 28.8452 1.06396 30.2045 2.49714C31.5593 3.92552 32.6744 5.87044 33.563 8.08532Z" fill="black"/>
<path fill-rule="evenodd" clip-rule="evenodd" d="M0 24.9998C0 23.7816 1.01753 22.7939 2.27273 22.7939H47.7273C48.9825 22.7939 50 23.7816 50 24.9998C50 26.2181 48.9825 27.2057 47.7273 27.2057H2.27273C1.01753 27.2057 0 26.2181 0 24.9998Z" fill="black"/>
</svg>
