<svg width="25" height="24" viewBox="0 0 25 24" fill="none" xmlns="http://www.w3.org/2000/svg">
<g opacity="0.8">
<path fill-rule="evenodd" clip-rule="evenodd" d="M18.0319 14.382C17.7339 14.233 16.2729 13.515 16.0009 13.415C15.7289 13.316 15.5309 13.267 15.3319 13.565C15.1339 13.861 14.5649 14.531 14.3919 14.729C14.2179 14.928 14.0449 14.952 13.7479 14.804C13.4509 14.654 12.4929 14.341 11.3579 13.329C10.4749 12.541 9.87788 11.568 9.70488 11.27C9.53188 10.973 9.68588 10.812 9.83488 10.664C9.96888 10.531 10.1319 10.317 10.2809 10.144C10.4299 9.96998 10.4789 9.84598 10.5779 9.64698C10.6779 9.44898 10.6279 9.27598 10.5529 9.12698C10.4789 8.97798 9.88488 7.51498 9.63688 6.91998C9.39588 6.34098 9.15088 6.41998 8.96888 6.40998C8.79488 6.40198 8.59688 6.39998 8.39888 6.39998C8.20088 6.39998 7.87888 6.47398 7.60688 6.77198C7.33388 7.06898 6.56688 7.78798 6.56688 9.25098C6.56688 10.713 7.63088 12.126 7.77988 12.325C7.92888 12.523 9.87488 15.525 12.8559 16.812C13.5659 17.118 14.1189 17.301 14.5499 17.437C15.2619 17.664 15.9099 17.632 16.4219 17.555C16.9919 17.47 18.1799 16.836 18.4279 16.142C18.6749 15.448 18.6749 14.853 18.6009 14.729C18.5269 14.605 18.3289 14.531 18.0309 14.382H18.0319ZM12.6099 21.785H12.6059C10.8353 21.7853 9.09725 21.3093 7.57388 20.407L7.21388 20.193L3.47188 21.175L4.47088 17.527L4.23588 17.153C3.24602 15.5773 2.72218 13.7538 2.72488 11.893C2.72688 6.44298 7.16088 2.00898 12.6139 2.00898C15.2539 2.00898 17.7359 3.03898 19.6019 4.90698C20.5223 5.82356 21.2518 6.91355 21.7482 8.11388C22.2446 9.31421 22.498 10.6011 22.4939 11.9C22.4919 17.35 18.0579 21.785 12.6099 21.785ZM21.0219 3.48798C19.9201 2.3789 18.6091 1.49952 17.165 0.90078C15.7208 0.302044 14.1722 -0.00413728 12.6089 -2.00576e-05C6.05488 -2.00576e-05 0.718882 5.33498 0.716882 11.892C0.713845 13.9787 1.26126 16.0294 2.30388 17.837L0.616882 24L6.92088 22.346C8.66476 23.2961 10.619 23.7939 12.6049 23.794H12.6099C19.1639 23.794 24.4999 18.459 24.5019 11.901C24.5067 10.3383 24.2016 8.79008 23.6043 7.34601C23.007 5.90195 22.1292 4.59065 21.0219 3.48798Z" fill="#EEEEEE"/>
</g>
</svg>
