<svg width="50" height="50" viewBox="0 0 50 50" fill="none" xmlns="http://www.w3.org/2000/svg">
<path fill-rule="evenodd" clip-rule="evenodd" d="M36.2812 29.9625C35.6604 29.6521 32.6166 28.1563 32.0499 27.948C31.4833 27.7417 31.0708 27.6396 30.6562 28.2605C30.2437 28.8771 29.0583 30.273 28.6979 30.6855C28.3354 31.1 27.975 31.15 27.3562 30.8417C26.7375 30.5292 24.7416 29.8771 22.377 27.7688C20.5375 26.1271 19.2937 24.1 18.9333 23.4792C18.5729 22.8605 18.8937 22.525 19.2041 22.2167C19.4833 21.9396 19.8229 21.4938 20.1333 21.1334C20.4437 20.7709 20.5458 20.5126 20.7521 20.098C20.9604 19.6855 20.8562 19.3251 20.7 19.0146C20.5458 18.7042 19.3083 15.6563 18.7916 14.4167C18.2896 13.2105 17.7791 13.3751 17.4 13.3542C17.0375 13.3376 16.625 13.3334 16.2125 13.3334C15.8 13.3334 15.1291 13.4876 14.5625 14.1084C13.9937 14.7271 12.3958 16.2251 12.3958 19.273C12.3958 22.3188 14.6125 25.2625 14.9229 25.6771C15.2333 26.0896 19.2875 32.3438 25.4979 35.025C26.977 35.6625 28.1291 36.0438 29.027 36.3271C30.5104 36.8 31.8604 36.7334 32.927 36.5729C34.1145 36.3959 36.5895 35.075 37.1062 33.6292C37.6208 32.1834 37.6208 30.9438 37.4666 30.6855C37.3124 30.4271 36.8999 30.273 36.2791 29.9625H36.2812ZM24.9854 45.3854H24.977C21.2884 45.3861 17.6674 44.3945 14.4937 42.5146L13.7437 42.0688L5.94791 44.1146L8.02915 36.5146L7.53957 35.7354C5.47736 32.4528 4.38602 28.6537 4.39166 24.7771C4.39583 13.423 13.6333 4.1855 24.9937 4.1855C30.4937 4.1855 35.6645 6.33133 39.552 10.223C41.4695 12.1325 42.9892 14.4033 44.0234 16.904C45.0576 19.4047 45.5856 22.0856 45.577 24.7917C45.5728 36.1459 36.3354 45.3854 24.9854 45.3854V45.3854ZM42.5103 7.26674C40.2149 4.95617 37.4838 3.12412 34.4751 1.87675C31.4665 0.629384 28.2402 -0.00849217 24.9833 8.53698e-05C11.3291 8.53698e-05 0.2125 11.1147 0.208333 24.775C0.202006 29.1224 1.34244 33.3946 3.51458 37.1604L0 50L13.1333 46.5542C16.7664 48.5336 20.8377 49.5708 24.975 49.5708H24.9854C38.6395 49.5708 49.7562 38.4563 49.7603 24.7938C49.7704 21.5381 49.1348 18.3128 47.8904 15.3043C46.646 12.2958 44.8174 9.56397 42.5103 7.26674" fill="black"/>
</svg>
